#!OML:ASF H:\Terrain\Patient Classification 1\Walking\liu\liu.ASF
:FULLY-SPECIFIED
:DEGREES
1
root 11.198895 23.990551 -55.098152 10.670341 1.972305 -5.501640
lowerback -6.448680 0.284106 1.409101
upperback -2.278290 0.277782 3.835530
thorax 1.267637 0.144049 3.160575
lowerneck -27.986851 -7.761210 -20.006399
upperneck 20.519550 -9.946606 25.385399
head 12.584910 -3.422880 10.755420
rclavicle 0.000000 0.000000
rhumerus -58.153198 26.182648 -126.154655
rradius 84.298347
rwrist -42.854401
rhand -49.802250 -38.626953
rfingers 10.687531
rthumb -9.613050 -83.451599
lclavicle 0.000000 0.000000
lhumerus -53.890053 -4.467825 129.381607
lradius 41.108398
lwrist 10.958355
lhand -19.950449 -34.531647
lfingers 10.687531
lthumb 19.205700 9.849360
rfemur -14.847015 7.089885 45.164848
rtibia 36.179703
rfoot 0.000000 0.000000
rtoes 0.000000
lfemur -61.034554 9.633869 -24.527401
ltibia 65.865898
lfoot -21.927900 12.520005
ltoes -17.773048
2
root 11.204685 23.986351 -54.914852 10.460460 1.765155 -5.141535
lowerback -6.044205 0.187075 1.029926
upperback -2.615115 0.183699 3.614115
thorax 0.698745 0.099517 3.138525
lowerneck -27.463800 -7.420680 -19.299000
upperneck 20.971199 -9.682620 24.897152
head 12.549465 -3.319725 10.503390
rclavicle 0.000000 0.000000
rhumerus -58.944298 26.193150 -126.734406
rradius 85.376556
rwrist -44.675400
rhand -48.763351 -40.056301
rfingers 10.687531
rthumb -8.610149 -84.909599
lclavicle 0.000000 0.000000
lhumerus -54.920250 -4.584120 129.302399
lradius 41.407501
lwrist 11.063849
lhand -19.879049 -35.516701
lfingers 10.687531
lthumb 19.274399 8.860081
rfemur -13.657845 7.489965 44.830048
rtibia 35.689350
rfoot 0.000000 0.000000
rtoes 0.000000
lfemur -60.947102 8.947335 -24.627899
ltibia 62.647648
lfoot -21.659401 11.691930
ltoes -17.477100
3
root 11.202974 23.972549 -54.738297 10.612440 1.530930 -5.131560
lowerback -6.379020 0.312737 0.801208
upperback -2.651745 0.353520 3.653310
thorax 0.841565 0.185332 3.316695
lowerneck -27.728699 -7.386585 -18.870602
upperneck 21.684450 -9.761280 24.646500
head 12.820830 -3.334185 10.350525
rclavicle -0.000000 0.000000
rhumerus -59.048847 26.029800 -126.690445
rradius 86.437500
rwrist -46.728001
rhand -47.193748 -40.910851
rfingers 10.687531
rthumb -7.094580 -85.801651
lclavicle -0.000000 0.000000
lhumerus -54.837746 -4.589265 129.526047
lradius 41.081699
lwrist 10.564770
lhand -19.278900 -35.836201
lfingers 10.687531
lthumb 19.852951 8.503560
rfemur -12.649575 8.037149 44.886902
rtibia 34.896000
rfoot 0.000000 0.000000
rtoes 0.000000
lfemur -61.466850 8.476845 -24.343800
ltibia 59.858402
lfoot -21.639900 10.831770
ltoes -16.619101
4
root 11.211270 23.965351 -54.553352 10.719060 1.204870 -5.530620
lowerback -6.923235 0.710200 1.230423
upperback -2.556255 0.848838 3.873405
thorax 1.227883 0.431141 3.331680
lowerneck -26.823000 -7.877520 -20.362499
upperneck 20.831249 -10.152269 25.206600
head 12.516331 -3.602730 10.733069
rclavicle 0.000000 0.000000
rhumerus -59.042549 25.792049 -126.193954
rradius 87.135895
rwrist -48.295799
rhand -47.273247 -41.403900
rfingers 10.687531
rthumb -7.171350 -86.292900
lclavicle 0.000000 0.000000
lhumerus -54.748047 -5.681085 130.717041
lradius 41.250000
lwrist 10.907206
lhand -17.858850 -35.158348
lfingers 10.687531
lthumb 21.221550 9.089146
rfemur -11.605440 8.130136 45.315899
rtibia 34.125149
rfoot 0.000000 0.000000
rtoes 0.000000
lfemur -61.794903 8.367090 -23.799749
ltibia 56.904900
lfoot -20.793449 10.927381
ltoes -16.531799
5
root 11.231880 23.964149 -54.355202 10.548045 0.763686 -5.611890
lowerback -7.192650 0.676522 1.325683
upperback -2.277435 0.783624 3.966375
thorax 1.666680 0.396540 3.375360
lowerneck -27.089100 -7.631400 -20.804100
upperneck 20.771250 -9.776295 25.852802
head 12.524205 -3.381690 11.101290
rclavicle 0.000000 0.000000
rhumerus -58.672951 26.539650 -126.387451
rradius 87.759750
rwrist -49.629303
rhand -47.390251 -43.187550
rfingers 10.687531
rthumb -7.284270 -88.074150
lclavicle 0.000000 0.000000
lhumerus -54.928200 -6.427605 131.527054
lradius 41.992348
lwrist 11.821800
lhand -17.652750 -33.884552
lfingers 10.687531
lthumb 21.420151 10.348995
rfemur -10.154085 8.096640 45.346500
rtibia 33.193050
rfoot 0.000000 0.000000
rtoes 0.000000
lfemur -61.632751 7.872255 -23.430750
ltibia 54.006149
lfoot -20.267550 11.385480
ltoes -16.083151
6
root 11.250975 23.966702 -54.152847 10.364340 0.214976 -5.397480
lowerback -7.293900 0.609024 1.174905
upperback -2.144370 0.696467 3.819870
thorax 1.862820 0.351725 3.306045
lowerneck -27.357002 -7.354230 -20.344500
upperneck 20.971649 -9.463740 25.641300
head 12.559545 -3.213285 10.993320
rclavicle 0.000000 -0.000000
rhumerus -58.656296 27.028650 -127.021500
rradius 88.461746
rwrist -50.743500
rhand -46.753048 -43.913998
rfingers 10.687531
rthumb -6.669120 -88.814102
lclavicle 0.000000 -0.000000
lhumerus -55.104454 -6.494580 131.589142
lradius 41.987701
lwrist 11.276896
lhand -18.038549 -34.311897
lfingers 10.687531
lthumb 21.048300 9.947565
rfemur -8.604975 8.108475 45.047852
rtibia 32.166603
rfoot 0.000000 0.000000
rtoes 0.000000
lfemur -61.326599 7.131510 -23.121601
ltibia 51.146702
lfoot -20.966099 11.724570
ltoes -15.901199
7
root 11.259359 23.982750 -53.960251 10.302810 -0.264570 -5.355780
lowerback -7.224795 0.505261 1.017219
upperback -2.185665 0.570075 3.687465
thorax 1.785840 0.288543 3.249960
lowerneck -27.530399 -7.200975 -19.292850
upperneck 21.183451 -9.403814 24.936150
head 12.586426 -3.179205 10.563405
rclavicle 0.000000 -0.000000
rhumerus -58.842751 27.431999 -127.860291
rradius 89.034454
rwrist -51.393898
rhand -46.811848 -44.074799
rfingers 10.687531
rthumb -6.725880 -88.973701
lclavicle 0.000000 -0.000000
lhumerus -55.408951 -6.375930 131.287354
lradius 41.958748
lwrist 10.509720
lhand -17.631599 -35.127151
lfingers 10.687531
lthumb 21.440550 9.104850
rfemur -7.263930 8.418930 44.974651
rtibia 31.233150
rfoot 0.000000 0.000000
rtoes 0.000000
lfemur -61.128601 6.531705 -22.603500
ltibia 48.214951
lfoot -21.168150 12.127186
ltoes -18.403049
8
root 11.261459 23.978550 -53.768852 10.374825 -0.705492 -5.496225
lowerback -7.306800 0.519535 0.923295
upperback -2.249580 0.593142 3.694050
thorax 1.764510 0.300279 3.311280
lowerneck -28.276051 -7.230765 -18.686550
upperneck 22.111351 -9.584220 24.616051
head 13.025371 -3.214890 10.348845
rclavicle 0.000000 -0.000000
rhumerus -59.061600 27.564451 -128.395798
rradius 89.607300
rwrist -51.701851
rhand -47.572800 -46.064247
rfingers 10.687531
rthumb -7.460550 -90.946648
lclavicle 0.000000 -0.000000
lhumerus -56.224197 -7.507649 131.749939
lradius 42.956253
lwrist 11.309760
lhand -17.069550 -34.322853
lfingers 10.687531
lthumb 21.982050 9.870285
rfemur -6.003540 9.103710 45.153152
rtibia 30.125999
rfoot -31.718700 -5.239140
rtoes -14.527710
lfemur -61.115101 5.982435 -21.866100
ltibia 45.446098
lfoot -20.670750 12.301170
ltoes -18.952049
9
root 11.269320 23.950800 -53.569801 10.440915 -1.224513 -5.630190
lowerback -7.833435 0.678466 1.027629
upperback -2.041890 0.784242 3.614190
thorax 2.267070 0.393651 3.188715
lowerneck -29.248802 -7.467720 -18.085350
upperneck 22.998451 -9.949320 23.910149
head 13.506571 -3.364695 9.963495
rclavicle 0.000000 0.000000
rhumerus -58.936501 27.312000 -128.753693
rradius 90.177002
rwrist -51.945000
rhand -47.470497 -47.336548
rfingers 10.687531
rthumb -7.361805 -92.221352
lclavicle 0.000000 0.000000
lhumerus -56.506199 -8.969295 132.220795
lradius 43.507652
lwrist 11.952195
lhand -16.011000 -33.731400
lfingers 10.687531
lthumb 23.001900 10.385745
rfemur -4.671600 9.455505 45.285301
rtibia 28.847849
rfoot -31.630501 -4.949040
rtoes -13.378695
lfemur -61.097099 5.319150 -21.013649
ltibia 42.938549
lfoot -20.558399 12.557430
ltoes -18.746399
10
root 11.285564 23.947651 -53.365501 10.517611 -1.818990 -6.092401
lowerback -8.355556 0.786141 1.506600
upperback -1.877550 0.881949 3.723330
thorax 2.728095 0.442365 3.046275
lowerneck -29.537998 -7.545915 -17.607151
upperneck 23.133900 -10.011165 23.093250
head 13.560181 -3.430575 9.573765
rclavicle 0.000000 0.000000
rhumerus -58.957047 27.507151 -129.126755
rradius 90.767250
rwrist -52.148552
rhand -46.353752 -45.018299
rfingers 10.687531
rthumb -6.283545 -89.926048
lclavicle 0.000000 0.000000
lhumerus -56.309853 -9.047820 132.293091
lradius 42.957451
lwrist 11.163240
lhand -14.757299 -34.968449
lfingers 10.687531
lthumb 24.209249 9.053535
rfemur -3.260970 9.395294 45.657150
rtibia 27.512999
rfoot -31.374601 -4.276665
rtoes -13.277790
lfemur -61.036800 4.626105 -19.716900
ltibia 40.615799
lfoot -20.596500 13.400010
ltoes -19.613100
11
root 11.301570 23.953199 -53.163300 10.624215 -2.444835 -6.324615
lowerback -8.440770 0.873051 1.619400
upperback -2.040435 0.990149 3.871245
thorax 2.604585 0.497136 3.142785
lowerneck -29.415600 -7.408245 -17.183849
upperneck 23.183399 -9.845011 22.555201
head 13.490416 -3.383970 9.328455
rclavicle -0.000000 0.000000
rhumerus -59.490295 27.832500 -129.593109
rradius 91.316551
rwrist -52.328400
rhand -45.627899 -43.341148
rfingers 10.687531
rthumb -5.582610 -88.261948
lclavicle -0.000000 0.000000
lhumerus -57.080097 -9.427440 132.819153
lradius 43.282951
lwrist 10.876320
lhand -14.828324 -35.803051
lfingers 10.687531
lthumb 24.140850 8.224425
rfemur -1.719090 9.353025 45.762001
rtibia 25.881300
rfoot -31.049850 -3.941775
rtoes -14.576654
lfemur -61.058548 3.903315 -18.670650
ltibia 38.568001
lfoot -20.858700 14.457674
ltoes -19.013700
